<svg xmlns="http://www.w3.org/2000/svg" width="1107" height="265" viewBox="0 0 1107 265">
  <g fill-rule="evenodd">
    <polygon points="1105.24 31 1105.24 69.44 1097.53 69.44 1097.53 42.62 1087.67 69.44 1080.95 69.44 1071.1 42.73 1071.1 69.44 1063.33 69.44 1063.33 31 1072.75 31 1084.42 59.91 1095.86 31"/>
    <path fill-rule="nonzero" d="M1049.04,32.54 C1051.97868,34.2131185 1054.40038,36.6625016 1056.04,39.62 C1059.4534,46.0518495 1059.4534,53.7581505 1056.04,60.19 C1054.40373,63.1551711 1051.98166,65.6118412 1049.04,67.29 C1042.8815,70.6625697 1035.4285,70.6625697 1029.27,67.29 C1026.32674,65.6139157 1023.90417,63.1567359 1022.27,60.19 C1018.8566,53.7581505 1018.8566,46.0518495 1022.27,39.62 C1023.90795,36.6612529 1026.33006,34.2114654 1029.27,32.54 C1035.4285,29.1674303 1042.8815,29.1674303 1049.04,32.54 Z M1033.15,38.71 C1031.41804,39.7708527 1030.02912,41.3090885 1029.15,43.14 C1027.20327,47.4259684 1027.20327,52.3440316 1029.15,56.63 C1030.02609,58.465557 1031.41549,60.0077939 1033.15,61.07 C1036.88657,63.1230159 1041.41343,63.1230159 1045.15,61.07 C1046.88451,60.0077939 1048.27391,58.465557 1049.15,56.63 C1051.09673,52.3440316 1051.09673,47.4259684 1049.15,43.14 C1048.27088,41.3090885 1046.88196,39.7708527 1045.15,38.71 C1041.41343,36.6569841 1036.88657,36.6569841 1033.15,38.71 Z"/>
    <path d="M1009.24,33.92 C1012.47243,36.4757345 1014.71124,40.0797482 1015.57,44.11 L1007.42,44.11 C1006.6532,42.0800572 1005.28132,40.3346668 1003.49,39.11 C1001.58597,37.8621754 999.345616,37.2270587 997.07,37.29 C993.012243,37.2247375 989.306407,39.5851427 987.65,43.29 C985.821073,47.5625014 985.821073,52.3974986 987.65,56.67 C989.306407,60.3748573 993.012243,62.7352625 997.07,62.67 C999.345616,62.7329413 1001.58597,62.0978246 1003.49,60.85 C1005.28043,59.6243822 1006.65207,57.8793026 1007.42,55.85 L1015.57,55.85 C1014.71145,59.8775778 1012.47238,63.4784907 1009.24,66.03 C1002.76164,70.540065 994.296249,71.0196027 987.35,67.27 C984.521371,65.6183311 982.226981,63.1885681 980.74,60.27 C977.620446,53.7786747 977.620446,46.2213253 980.74,39.73 C982.22165,36.8174403 984.504568,34.3888048 987.32,32.73 C994.278133,28.9868087 1002.74841,29.4659666 1009.24,33.97 L1009.24,33.92 Z"/>
    <circle cx="969.92" cy="65.39" r="4.05"/>
    <path d="M1073.73,78.79 C1059.73026,78.7671684 1046.00807,82.6942322 1034.14,90.12 C1033.64653,90.4521973 1033.0308,90.5474895 1032.46,90.38 C1032.0314,90.2754662 1031.65287,90.0242929 1031.39,89.67 C1031.12462,89.3164883 1030.97136,88.8915187 1030.95,88.45 C1030.93897,84.1058087 1027.41421,80.589986 1023.07,80.59 L964.96,80.59 C961.625694,80.5936767 958.652689,82.6903852 957.53,85.83 L917.75,204.32 C917.483758,205.116232 917.348664,205.950436 917.35,206.79 C917.349998,208.88164 918.181583,210.887465 919.661533,212.36554 C921.141483,213.843614 923.148362,214.672654 925.24,214.67 L983.34,214.67 C986.670085,214.672321 989.64309,212.583616 990.77,209.45 L1017.38,130.19 C1020.70347,121.794577 1025.82312,114.227735 1032.38,108.02 C1032.86605,107.596137 1033.42061,107.257986 1034.02,107.02 C1034.79581,106.762251 1035.62131,106.69032 1036.43,106.81 C1038.83013,107.203929 1040.5986,109.267853 1040.62,111.7 L1040.62,111.89 C1040.62,130.165102 1055.4349,144.98 1073.71,144.98 C1091.9851,144.98 1106.8,130.165102 1106.8,111.89 C1106.8,93.6148976 1091.9851,78.8 1073.71,78.8 L1073.73,78.79 Z"/>
    <path fill-rule="nonzero" d="M912.38,185.11 L912.32,185.06 L911.96,184.78 L911.83,184.69 C911.64,184.56 911.45,184.44 911.24,184.32 L910.94,184.15 C909.828176,183.58348 908.597836,183.288747 907.35,183.29 L904.86,183.29 C902.098576,183.29 899.86,181.051424 899.86,178.29 C899.855788,177.79477 899.930041,177.301999 900.08,176.83 L928.93,90.83 C929.039907,90.4820382 929.130051,90.12814 929.2,89.77 C929.292564,89.292203 929.339442,88.8066804 929.34,88.32 C929.346952,85.9018879 928.240473,83.6151647 926.34,82.12 L926.03,81.89 C924.697637,80.9444983 923.103757,80.4376725 921.47,80.44 L804.42,80.44 C757.895643,80.4152797 719.365709,116.558984 716.42,162.99 C716.31,164.37 716.25,165.78 716.25,167.19 C716.226095,180.361139 721.442932,193.000719 730.74978,202.320699 C740.056629,211.64068 752.688841,216.875334 765.86,216.87 C766.54,216.87 767.22,216.87 767.86,216.87 L769.08,216.87 L769.89,216.87 C772.076807,216.872143 774.261431,216.731846 776.43,216.45 C793.808545,214.577195 809.978413,206.663904 822.12,194.09 C824.668831,206.060766 835.240892,214.619299 847.48,214.62 L882.98,214.62 C884.963938,214.621419 886.944404,214.45415 888.9,214.12 L889.28,214.05 C889.73,213.97 890.17,213.88 890.61,213.78 L891.09,213.67 L892.44,213.32 L892.77,213.22 L894.12,212.8 L894.5,212.66 C894.92,212.52 895.34,212.36 895.75,212.2 L896.75,211.79 L897.35,211.52 C904.380249,208.312694 910.145586,202.860424 913.74,196.02 L913.81,195.87 L913.81,195.78 C914.01,195.36 914.4,194.54 914.67,193.78 C914.67,193.62 914.78,193.46 914.82,193.29 C914.86,193.12 914.89,193.03 914.93,192.89 C914.925321,192.870274 914.925321,192.849726 914.93,192.83 C914.93,192.63 915.01,192.42 915.04,192.21 C915.088834,191.852107 915.112226,191.491202 915.11,191.13 C915.12766,188.819911 914.129448,186.618726 912.38,185.11 Z M823.21,183.28 L801.35,183.28 C797.096323,183.182052 793.139414,181.078656 790.678862,177.607484 C788.218309,174.136312 787.543866,169.706128 788.86,165.66 L801,129.5 C804.55718,118.957573 814.443622,111.859615 825.57,111.86 L847.15,111.86 L823.21,183.28 Z"/>
    <path d="M735.93,88.41 C735.930003,84.0563756 732.403621,80.5255179 728.05,80.52 L686.05,80.52 L700.71,36.83 C700.972988,36.0366832 701.10472,35.2057583 701.1,34.37 C701.1,30.0179962 697.572004,26.49 693.22,26.49 L672.54,26.49 C669.522884,26.4855424 666.768788,28.2063668 665.45,30.92 C650.568143,61.2557409 619.719448,80.4779852 585.93,80.47 L585.93,80.53 C582.600589,80.5463717 579.639777,82.6509487 578.53,85.79 L573.23,101.59 C573.190726,101.701501 573.157347,101.814991 573.13,101.93 L569.86,111.85 L600.86,111.85 L577.86,180.31 C575.307695,187.793134 576.307545,196.031754 580.575719,202.687146 C584.843893,209.342537 591.914356,213.688008 599.78,214.49 C600.650473,214.578935 601.524999,214.622327 602.4,214.62 L680.46,214.62 C693.886904,214.630464 706.115562,206.896033 711.86,194.76 C713.102926,192.318969 712.990819,189.407946 711.563838,187.069737 C710.136858,184.731527 707.59923,183.30077 704.86,183.29 L658.56,183.29 C656.91609,183.281867 655.381211,182.466175 654.454629,181.108253 C653.528047,179.750331 653.328165,178.023701 653.92,176.49 L655.05,173.13 C655.05,173.02 655.11,172.92 655.15,172.81 L656.84,167.76 L675.6,111.86 L703.86,111.86 C703.86,111.86 704.54,111.86 705.47,111.78 C706.03,111.78 706.59,111.74 707.15,111.66 C707.93,111.59 708.72,111.5 709.36,111.38 C720.634188,109.523213 730.275855,102.244296 735.15,91.91 C735.230001,91.7683191 735.300166,91.6213058 735.36,91.47 L735.36,91.37 L735.42,91.2 C735.753374,90.3074004 735.92604,89.3628152 735.93,88.41 Z"/>
    <circle cx="544.38" cy="34.88" r="33.09"/>
    <path d="M566.67 191.17C566.665685 186.885698 563.243189 183.387739 558.96 183.29L540.86 183.29C539.21609 183.281867 537.681211 182.466175 536.754629 181.108253 535.828047 179.750331 535.628165 178.023701 536.22 176.49L537.35 173.13C537.35 173.02 537.41 172.92 537.45 172.81L539.14 167.76 564.86 91C565.703897 88.5890466 565.325184 85.9184868 563.844243 83.8372193 562.363303 81.7559518 559.96437 80.5228935 557.41 80.53L499.29 80.53C495.841139 80.5294659 492.791599 82.7690352 491.76 86.06L460.12 180.31C457.415948 188.228078 458.698828 196.964392 463.56509 203.770811 468.431353 210.577231 476.282931 214.617241 484.65 214.62L534.59 214.62C548.001969 214.554689 560.176137 206.768204 565.86 194.62L565.94 194.47 565.94 194.41C566.410751 193.394126 566.659611 192.289597 566.67 191.17zM467.18 90.92C467.45449 90.1117533 467.593036 89.2635796 467.59 88.41 467.590002 86.3183603 466.758417 84.3125345 465.278467 82.83446 463.798517 81.3563856 461.791638 80.5273456 459.7 80.53L401.6 80.53C398.18007 80.5270671 395.14762 82.7277136 394.09 85.98L381.57 123.28 361.49 183.28 343.95 183.28C336.52177 183.28 330.5 177.25823 330.5 169.83 330.496261 168.474717 330.695125 167.126487 331.09 165.83L356.24 91C356.526615 90.1770064 356.671998 89.3114714 356.67 88.44 356.670002 86.3483603 355.838417 84.3425345 354.358467 82.86446 352.878517 81.3863856 350.871638 80.5573456 348.78 80.56L290.67 80.56C287.250706 80.5493402 284.215755 82.7477596 283.16 86L261.16 151.36 261.1 151.54C256.108225 166.530332 258.553648 183.001845 267.685169 195.895378 276.81669 208.788912 291.542639 216.563051 307.34 216.83L308.15 216.83C310.336807 216.832143 312.521431 216.691846 314.69 216.41 332.067827 214.534712 348.236892 206.621814 360.38 194.05 362.928831 206.020766 373.500892 214.579299 385.74 214.58L421.24 214.58C434.15091 214.589497 446.000204 207.432153 452 196 452.09 195.81 452.64 194.72 453 193.8 453.106241 193.509405 453.193098 193.212087 453.26 192.91 453.26 192.91 453.26 192.91 453.26 192.85 453.767945 190.516092 453.192675 188.077677 451.695123 186.216905 450.19757 184.356134 447.93854 183.272812 445.55 183.27L443.06 183.27C441.444823 183.25088 439.938378 182.45265 439.015536 181.126933 438.092694 179.801215 437.867149 178.11134 438.41 176.59L467.18 90.92zM185.7 54.56C185.70097 76.4798558 201.801351 95.0718208 223.496102 98.2051664 245.190853 101.338512 265.893954 88.0620274 272.09722 67.0382415 278.300485 46.0144556 268.12075 23.6256995 248.2 14.48 230.441463 6.30597422 211.314742 1.51412029 191.8.35 188.62.156666667 185.42.06 182.2.06L180.66.06C175.37-.02 169.33-.05 165.22.16 73.37 3.05.04 62.16.04 134.53.04 136.69.11 138.85.24 140.99 2.48 193.6 54.7 235.99 119.77 238.1L120.51 238.1 120.94 238.1C134.399363 237.514599 147.617137 234.322228 159.86 228.7 160.304943 228.493993 160.789684 228.38817 161.28 228.39 162.409557 228.390317 163.468694 228.938848 164.120714 229.861219 164.772735 230.78359 164.936519 231.965044 164.56 233.03L156.04 258.39C155.854628 258.920363 155.759969 259.478175 155.76 260.04 155.78742 262.781878 158.017985 264.990137 160.76 264.99L161.19 264.99C192.877854 264.994349 221.131971 245.036599 231.72 215.17L231.93 214.55 232.35 213.3 255.57 144.13C255.82471 143.345272 255.952979 142.525025 255.95 141.7 255.95 137.33695 252.41305 133.8 248.05 133.8L203.52 133.8C200.104776 133.804537 197.07915 136.003159 196.02 139.25L187.16 165.64 175.41 200.64C174.576735 202.936666 172.732543 204.721845 170.41 205.48L170.21 205.54C137.517916 215.785342 101.959504 203.616674 82.3990635 175.489667 62.8386227 147.36266 63.8068154 109.792196 84.79 82.71 106.203317 51.3953588 141.704053 32.6812125 179.64 32.71L179.69 32.71C181.786944 32.7099983 183.797857 33.5436899 185.279682 35.0273908 186.761507 36.5110918 187.592654 38.5230576 187.59 40.62 187.591951 41.4197389 187.473973 42.2152498 187.24 42.98 186.211553 46.7538499 185.693608 50.648529 185.7 54.56z"/>
  </g>
</svg>
